<svg xmlns="http://www.w3.org/2000/svg" version="1.0" width="1438.000000pt" height="1392.000000pt" viewBox="0 0 1438.000000 1392.000000" preserveAspectRatio="xMidYMid meet" style="&#10;    /* background: mediumspringgreen; */&#10;"><g xmlns="http://www.w3.org/2000/svg" transform="translate(0.000000,1392.000000) scale(0.100000,-0.100000)" fill="#000000" stroke="none"><circle xmlns="http://www.w3.org/2000/svg" style="&#10;    r: 6228;&#10;    cx: 7096;&#10;    cy: 6728;&#10;    fill: white;&#10;"/><path d="M6700 12949 c-1523 -94 -2949 -738 -4030 -1819 -1607 -1606 -2211 -3934 -1590 -6125 389 -1373 1266 -2595 2450 -3415 74 -51 150 -104 168 -117 19 -15 49 -56 73 -101 22 -42 53 -97 69 -122 16 -25 33 -52 37 -60 15 -32 77 -117 114 -155 22 -23 39 -46 39 -52 0 -29 41 -18 170 47 77 39 145 70 151 70 6 0 77 -30 158 -66 570 -257 1160 -424 1781 -503 300 -39 428 -46 800 -46 391 1 567 13 895 61 1095 160 2132 612 2998 1306 338 271 694 627 965 965 694 866 1146 1903 1306 2998 48 328 60 504 61 895 0 372 -7 500 -46 800 -206 1615 -1031 3077 -2308 4095 -923 735 -2049 1196 -3221 1319 -330 35 -723 44 -1040 25z m875 -139 c1316 -114 2509 -615 3505 -1473 256 -221 587 -568 807 -847 678 -863 1113 -1901 1252 -2990 38 -294 45 -421 45 -780 0 -359 -7 -486 -45 -780 -171 -1340 -780 -2579 -1740 -3539 -960 -960 -2199 -1569 -3539 -1740 -294 -38 -421 -45 -780 -45 -626 0 -1114 67 -1697 235 -331 95 -874 304 -857 330 3 5 22 16 42 25 20 8 66 29 102 44 36 16 99 43 140 61 41 17 93 39 115 49 43 19 126 53 190 77 22 9 58 24 80 33 47 22 153 66 210 87 22 9 54 21 70 28 17 7 44 17 60 23 30 10 184 69 410 157 39 15 88 34 110 42 95 36 152 60 290 123 126 58 328 130 363 130 12 0 24 4 27 10 8 13 302 13 310 0 8 -13 258 -13 299 0 17 5 63 19 101 30 39 11 93 34 120 50 127 74 140 78 261 95 269 37 565 108 849 206 143 48 215 64 350 75 33 3 69 9 80 14 11 5 47 11 80 14 61 5 269 29 405 46 41 5 137 15 212 22 75 7 140 16 144 21 4 4 40 7 79 7 39 0 75 3 79 7 4 5 80 14 169 21 89 7 200 17 247 22 47 5 123 13 170 18 133 13 220 63 220 127 0 19 -4 36 -9 39 -5 3 -22 30 -39 59 -16 29 -48 68 -71 87 -74 63 -109 90 -116 90 -4 0 -27 17 -51 38 -67 58 -155 125 -195 147 -74 41 -77 46 -80 112 l-2 62 74 78 c363 383 612 736 824 1168 471 961 587 2033 334 3071 -369 1516 -1509 2744 -2994 3224 -1061 343 -2209 281 -3233 -174 -779 -347 -1459 -929 -1936 -1656 -597 -910 -843 -2015 -691 -3098 69 -491 211 -947 436 -1399 l88 -178 -22 -19 c-12 -10 -46 -33 -75 -50 -29 -17 -61 -35 -70 -41 -9 -5 -43 -28 -75 -50 -32 -22 -66 -44 -75 -50 -9 -5 -43 -28 -75 -50 -96 -66 -110 -74 -162 -99 -54 -26 -114 -84 -137 -131 -26 -55 -68 -219 -68 -267 0 -40 -9 -50 -63 -68 -21 -6 -41 -18 -43 -25 -5 -11 26 -79 61 -134 6 -9 19 -29 29 -46 44 -69 65 -103 92 -148 16 -27 43 -72 61 -100 18 -29 42 -69 55 -91 13 -21 28 -46 33 -55 29 -46 52 -82 92 -142 23 -36 43 -69 43 -73 0 -4 8 -19 18 -34 40 -58 97 -149 115 -181 10 -18 33 -55 50 -82 62 -93 92 -141 117 -184 14 -24 39 -64 55 -89 17 -25 48 -75 70 -112 22 -36 54 -87 72 -114 17 -26 40 -63 50 -81 20 -36 35 -60 92 -149 20 -30 44 -70 54 -88 l18 -34 -48 33 c-288 195 -746 612 -1027 934 -740 849 -1218 1840 -1420 2945 -65 356 -90 658 -90 1085 1 533 39 881 154 1380 200 864 590 1679 1144 2385 289 368 666 745 1036 1036 785 616 1697 1026 2690 1208 220 40 531 75 810 90 115 6 641 -3 765 -14z m-668 -1965 c2 -27 5 -69 8 -92 l6 -42 32 19 c47 29 121 27 152 -4 32 -32 43 -81 47 -216 l3 -115 -45 0 -45 0 -6 110 c-8 141 -7 131 -25 149 -23 23 -54 19 -86 -11 l-28 -26 7 -119 6 -118 -45 0 -45 0 -6 63 c-4 34 -9 151 -13 260 l-7 198 44 -3 44 -3 2 -50z m1302 -56 c22 -8 30 -16 27 -28 -3 -9 -26 -104 -51 -211 -70 -299 -60 -273 -102 -267 -20 4 -40 10 -45 15 -6 6 86 429 107 490 5 15 23 15 64 1z m-1870 -23 c7 -8 13 -27 14 -42 l2 -27 -65 2 c-55 2 -69 -1 -84 -18 -25 -27 -14 -65 21 -79 16 -6 48 -16 73 -22 111 -27 144 -60 145 -146 0 -63 -22 -98 -86 -133 -58 -33 -173 -37 -195 -7 -20 28 -19 80 2 72 95 -36 197 2 180 69 -6 25 -30 36 -120 59 -203 51 -162 285 50 286 32 0 56 -5 63 -14z m1178 -42 c92 -67 82 -256 -16 -321 -26 -17 -48 -23 -93 -23 -103 0 -159 39 -178 124 -21 96 20 199 95 232 45 21 157 14 192 -12z m-786 -25 c12 -19 12 -69 0 -69 -5 0 -22 5 -37 10 -71 27 -123 -28 -109 -116 13 -86 78 -121 138 -74 34 27 44 25 52 -10 12 -53 -40 -90 -127 -90 -109 0 -153 55 -153 192 0 98 13 126 75 160 42 23 146 21 161 -3z m1184 -15 c62 -31 80 -63 80 -147 -1 -57 -6 -81 -25 -117 -58 -104 -203 -119 -292 -30 -36 36 -38 41 -38 104 0 100 36 171 105 202 39 19 120 13 170 -12z m793 -59 c29 -9 67 -30 87 -49 62 -59 44 -139 -39 -177 -22 -10 -54 -19 -70 -19 -18 0 -26 -4 -23 -12 39 -94 52 -118 61 -115 6 2 20 20 31 40 22 41 46 47 83 21 22 -15 22 -15 3 -52 -11 -20 -31 -48 -45 -61 -32 -30 -32 -38 -1 -71 22 -23 24 -31 16 -53 -16 -41 -53 -36 -91 12 -31 38 -33 39 -109 42 -167 8 -264 116 -206 229 15 29 79 70 108 70 12 0 14 15 13 69 -1 61 2 72 24 96 44 48 77 54 158 30z m-3119 -127 l34 -85 28 32 c37 42 79 59 123 51 43 -8 78 -48 104 -118 11 -29 32 -84 46 -121 l26 -68 -35 -14 c-19 -8 -39 -15 -44 -15 -5 0 -29 50 -52 111 -47 121 -68 146 -111 130 -14 -5 -31 -23 -38 -40 -13 -33 -12 -38 44 -183 l26 -68 -31 -15 c-17 -9 -37 -15 -46 -13 -10 2 -46 84 -104 233 -49 127 -89 234 -89 238 0 10 61 37 75 33 6 -1 25 -41 44 -88z m-127 -154 c10 -22 10 -28 -5 -39 -17 -12 -17 -15 2 -46 41 -68 13 -137 -70 -172 -48 -20 -63 -42 -36 -53 7 -2 45 9 85 26 89 38 116 38 153 1 23 -23 29 -38 29 -72 0 -38 -5 -48 -48 -88 -48 -47 -122 -81 -175 -81 -17 0 -38 10 -54 26 -22 22 -25 32 -20 70 3 33 1 44 -9 44 -21 0 -46 46 -43 78 3 22 -5 37 -28 61 -42 42 -51 89 -26 138 16 32 35 46 114 85 52 26 100 47 107 47 7 1 18 -11 24 -25z m3868 -34 c22 -11 40 -23 40 -26 0 -15 -178 -322 -204 -352 -28 -32 -33 -34 -84 -30 -43 4 -59 11 -84 35 -29 30 -30 31 -14 62 9 17 19 31 22 31 2 0 18 -10 35 -22 23 -17 34 -20 47 -12 9 6 57 84 107 172 49 89 91 162 93 162 1 0 21 -9 42 -20z m-4293 -36 c19 -30 11 -52 -29 -72 -33 -15 -52 -8 -67 26 -11 24 -10 29 14 49 34 30 61 29 82 -3z m133 -236 c47 -78 86 -147 88 -154 3 -12 -52 -54 -69 -54 -8 0 -179 290 -179 304 0 12 48 45 65 46 6 0 49 -64 95 -142z m2425 118 c828 -99 1566 -474 2139 -1086 505 -539 824 -1242 908 -1995 17 -152 17 -575 0 -720 -37 -318 -107 -607 -219 -899 -52 -137 -164 -366 -180 -366 -20 0 -16 18 13 55 33 43 64 143 64 204 0 45 1 47 43 66 91 43 56 78 -165 170 l-168 69 0 66 c0 123 28 170 179 303 39 34 43 41 37 70 -4 17 -12 37 -19 44 -20 20 -2530 1223 -2552 1223 -11 0 -86 -12 -167 -27 l-147 -28 -5 -50 c-7 -65 -43 -1619 -46 -1942 l0 -53 -432 -4 c-427 -4 -681 -16 -726 -36 -13 -5 -32 -10 -43 -10 -10 0 -27 -4 -37 -9 -9 -5 -48 -16 -87 -25 -94 -22 -258 -103 -358 -175 -75 -55 -207 -179 -207 -195 0 -10 -73 -96 -81 -96 -4 0 -14 6 -21 13 -31 30 -180 119 -253 152 -44 20 -93 43 -108 51 -16 8 -38 14 -48 14 -11 0 -29 5 -40 10 -11 6 -54 14 -97 18 l-77 7 0 720 c0 1116 6 2396 12 2441 l5 41 111 12 c509 54 984 126 1427 217 613 127 863 171 1056 187 l51 4 7 -151 c4 -83 5 -369 2 -636 -4 -444 -4 -457 4 -160 5 179 14 420 20 535 6 116 13 265 17 332 l6 121 -61 -5 c-58 -5 -60 -5 -64 18 -2 16 -15 30 -41 42 -33 15 -37 20 -26 33 15 19 2 34 -44 50 -19 6 -43 27 -60 52 -23 34 -34 42 -59 42 -23 0 -40 10 -67 40 -29 32 -43 40 -72 40 -28 0 -39 5 -49 26 -11 19 -19 24 -35 19 -11 -3 -37 -9 -57 -12 -35 -5 -37 -4 -43 28 -3 19 -5 57 -3 84 l3 50 -50 -2 c-27 0 -90 -16 -140 -33 -49 -18 -187 -64 -305 -103 -541 -179 -1189 -399 -1330 -452 -85 -31 -207 -71 -270 -87 -101 -26 -126 -29 -205 -24 -85 6 -93 4 -152 -23 -94 -45 -110 -93 -76 -231 13 -57 16 -258 23 -1645 5 -969 5 -1584 -1 -1589 -13 -14 -28 10 -113 174 -537 1045 -510 2285 72 3305 300 525 762 987 1287 1287 442 252 925 401 1455 447 143 13 506 5 665 -13z m-2628 -175 c73 -101 133 -187 133 -192 0 -13 -61 -59 -71 -53 -5 3 -34 39 -64 80 -30 41 -58 74 -61 74 -5 0 -109 -71 -143 -96 -2 -2 22 -38 53 -81 31 -42 56 -83 56 -89 0 -16 -50 -56 -66 -52 -7 2 -74 88 -148 192 -146 203 -145 200 -84 232 27 14 28 14 73 -48 26 -35 50 -69 54 -77 7 -11 23 -4 75 33 36 26 69 52 72 58 4 5 -2 22 -13 36 -11 15 -35 49 -54 75 l-34 49 30 24 c17 13 36 23 44 22 8 -2 75 -86 148 -187z m4484 110 c20 -17 22 -23 12 -39 -11 -18 -9 -19 31 -15 78 9 107 -27 65 -81 l-20 -26 -29 21 c-24 18 -33 20 -61 10 -27 -9 -46 -29 -91 -101 -32 -50 -63 -90 -70 -90 -7 0 -26 11 -42 23 l-29 23 94 147 c52 81 99 147 105 147 7 0 22 -9 35 -19z m55 -342 c22 -24 12 -63 -22 -85 -24 -16 -27 -16 -52 3 -36 27 -39 57 -9 87 28 27 55 26 83 -5z m607 -11 c50 -28 107 -100 107 -136 0 -24 -34 -72 -51 -72 -5 0 -14 18 -20 40 -25 82 -108 122 -177 86 -61 -32 -132 -129 -132 -179 0 -43 41 -90 98 -112 28 -11 52 -25 52 -31 0 -6 -11 -21 -25 -34 -24 -22 -25 -23 -67 -7 -92 35 -158 120 -158 203 0 97 110 230 219 265 39 12 109 2 154 -23z m-5625 -221 l123 -123 -26 -24 c-21 -20 -29 -22 -45 -13 -17 11 -19 8 -25 -30 -9 -47 -56 -102 -99 -113 -15 -3 -41 -1 -59 7 -33 13 -217 185 -217 203 0 14 41 56 55 56 6 0 40 -29 75 -66 107 -108 158 -127 181 -67 19 50 11 67 -71 148 -44 44 -80 84 -80 89 0 14 41 56 54 56 6 0 66 -55 134 -123z m-353 -243 c107 -86 195 -160 195 -164 0 -4 -9 -18 -19 -31 -17 -21 -22 -22 -40 -11 -20 11 -21 10 -21 -26 0 -80 -81 -150 -155 -136 -46 8 -120 58 -158 106 -62 77 -41 180 43 216 l41 17 -71 55 c-38 30 -70 60 -70 66 0 15 39 64 51 64 5 0 97 -70 204 -156z m6138 115 c32 -17 87 -70 103 -101 8 -15 14 -45 14 -68 0 -49 -17 -84 -62 -126 -76 -72 -165 -85 -235 -35 -47 34 -82 86 -90 135 -10 65 59 163 138 195 33 13 106 13 132 0z m386 -205 c12 -15 21 -32 21 -38 0 -16 -398 -309 -413 -303 -7 3 -20 18 -29 34 -17 29 -17 31 5 50 39 35 378 283 387 283 5 0 18 -12 29 -26z m-3961 -96 c-5 -16 -103 -52 -619 -233 -217 -75 -488 -173 -604 -218 -115 -44 -327 -120 -470 -169 -143 -49 -303 -105 -355 -124 -90 -34 -99 -35 -177 -29 -81 7 -83 6 -92 -17 -8 -23 -9 -23 -30 12 -12 19 -20 46 -19 60 3 24 6 25 73 26 87 0 199 31 474 128 307 110 1005 338 1176 386 286 79 516 150 553 169 42 23 96 28 90 9z m4081 -74 c12 -15 21 -32 21 -39 0 -6 -93 -74 -207 -150 -160 -106 -210 -135 -222 -128 -18 11 -48 60 -41 66 16 14 416 277 422 277 3 0 16 -12 27 -26z m-6925 -7 c28 -23 29 -24 11 -50 -12 -19 -15 -37 -11 -62 6 -31 19 -43 99 -97 51 -33 94 -62 96 -64 2 -2 -7 -19 -19 -39 -15 -25 -27 -34 -38 -30 -43 16 -282 182 -282 195 1 26 28 53 49 47 17 -4 19 0 18 38 -1 30 4 49 17 64 24 26 25 26 60 -2z m2846 -11 l0 -34 -162 -62 c-244 -93 -835 -289 -1084 -360 -120 -34 -286 -89 -369 -121 -175 -68 -292 -102 -338 -97 -23 2 115 54 523 197 305 106 677 241 825 299 230 90 573 211 598 212 4 0 7 -15 7 -34z m140 -60 c0 -14 -201 -82 -897 -307 -399 -129 -979 -297 -989 -286 -4 3 124 43 911 284 225 69 550 180 680 233 109 44 245 89 273 90 12 0 22 -6 22 -14z m124 -51 c8 -22 -26 -52 -71 -63 -21 -6 -137 -31 -258 -57 -121 -26 -271 -60 -333 -76 -62 -16 -116 -29 -120 -28 -10 0 524 184 623 214 94 28 150 32 159 10z m113 -85 c7 -14 20 -30 29 -37 10 -7 16 -15 13 -17 -13 -13 -568 -129 -1289 -271 -401 -79 -674 -135 -773 -161 -101 -26 -85 -10 19 19 121 34 1027 264 1254 319 91 22 287 71 435 108 149 38 277 67 285 66 8 0 20 -12 27 -26z m-3392 -77 c86 -45 158 -90 174 -109 53 -60 50 -144 -9 -237 -38 -61 -81 -87 -142 -87 -40 0 -72 13 -195 76 -82 42 -152 80 -157 85 -10 9 -2 47 17 73 13 18 21 15 161 -58 181 -93 211 -97 259 -26 25 36 21 75 -10 109 -16 16 -90 62 -165 101 -76 40 -138 75 -138 78 0 14 40 72 50 72 5 0 75 -35 155 -77z m7048 13 c88 -37 133 -148 92 -226 -17 -32 -80 -80 -106 -80 -9 0 -36 37 -68 95 -47 86 -54 94 -72 84 -52 -27 -40 -102 27 -170 l36 -37 -23 -16 c-33 -23 -43 -20 -79 21 -48 55 -84 137 -77 179 11 64 67 118 156 150 47 17 74 17 114 0z m-3563 -36 c-28 -19 -144 -49 -260 -69 -194 -33 -411 -63 -423 -57 -7 2 -1 5 12 5 40 2 472 90 536 110 65 21 161 28 135 11z m68 -62 c-3 -7 -38 -19 -79 -26 -157 -27 -448 -83 -774 -150 -374 -77 -690 -128 -1035 -167 -124 -14 -229 -25 -235 -24 -15 2 110 28 480 102 458 92 540 106 1098 192 270 42 493 78 496 81 10 10 52 3 49 -8z m3690 -248 c32 -20 44 -41 96 -167 l25 -63 -26 -17 c-25 -16 -26 -16 -43 5 -15 19 -20 20 -30 7 -20 -24 -78 -30 -116 -11 -37 17 -74 68 -74 103 0 29 -18 39 -38 20 -14 -14 -13 -21 7 -69 12 -29 25 -72 28 -95 5 -37 2 -45 -25 -72 -41 -41 -96 -43 -143 -4 -63 53 -108 190 -79 242 15 29 64 45 99 33 26 -9 31 -8 36 7 8 26 49 45 83 38 22 -5 34 0 55 23 41 43 95 50 145 20z m-6638 -51 c14 -51 83 -118 159 -155 45 -21 135 -42 195 -44 5 0 1 -9 -9 -20 -49 -54 -208 3 -322 114 -64 64 -84 105 -63 131 20 24 28 18 40 -26z m368 -46 c-4 -20 -73 -47 -90 -37 -6 4 9 17 33 30 54 28 61 29 57 7z m309 1 c-3 -3 -12 -4 -19 -1 -8 3 -5 6 6 6 11 1 17 -2 13 -5z m-513 -49 c14 -14 23 -25 20 -25 -14 0 -64 32 -64 40 0 17 18 11 44 -15z m259 -2 c-7 -2 -19 -2 -25 0 -7 3 -2 5 12 5 14 0 19 -2 13 -5z m-298 -144 c79 -38 167 -55 206 -38 17 6 31 10 32 8 1 -2 -1 -530 -4 -1174 -4 -643 -7 -1335 -8 -1537 l-1 -368 -101 0 c-55 0 -108 -4 -117 -9 -9 -4 -45 -11 -78 -14 l-62 -5 -6 262 c-4 143 -10 871 -15 1616 -4 745 -11 1364 -16 1375 -5 11 17 -3 51 -33 32 -29 86 -66 119 -83z m229 89 c-3 -5 -12 -1 -19 9 -7 10 -11 22 -8 27 4 5 12 1 19 -9 7 -10 11 -22 8 -27z m-1245 -59 c32 -11 39 -23 21 -34 -18 -11 -11 -63 13 -89 13 -15 55 -35 107 -51 47 -15 90 -32 97 -37 12 -9 2 -63 -15 -80 -8 -8 -306 86 -329 104 -21 16 4 68 33 68 24 0 24 1 9 30 -18 34 -18 40 -5 74 11 29 22 31 69 15z m7669 -106 c41 -31 63 -67 73 -118 13 -70 -13 -125 -74 -154 -76 -37 -85 -31 -123 83 -19 54 -36 101 -38 104 -10 9 -66 -57 -66 -77 0 -11 15 -49 34 -85 36 -69 34 -76 -19 -76 -19 0 -30 12 -56 65 -27 56 -31 72 -27 125 4 52 9 66 35 92 64 63 202 85 261 41z m-7635 -234 c159 -40 157 -39 157 -59 0 -32 -11 -50 -31 -50 -16 0 -18 -3 -9 -19 16 -31 12 -103 -9 -137 -27 -44 -71 -60 -122 -45 -61 18 -73 46 -66 146 5 77 4 85 -13 90 -25 8 -57 -10 -66 -37 -3 -12 -6 -48 -5 -80 1 -54 0 -58 -22 -58 -37 0 -47 19 -47 90 0 74 24 138 61 164 31 21 74 20 172 -5z m7386 -178 c26 -5 58 -5 78 1 44 12 64 -4 66 -53 2 -29 -2 -34 -32 -43 -27 -8 -47 -5 -102 14 -73 24 -82 31 -93 68 -8 25 6 27 83 13z m-7431 -197 l122 -17 0 -31 c0 -59 -7 -62 -117 -48 -127 16 -148 15 -167 -4 -21 -21 -20 -53 4 -84 16 -22 32 -27 132 -40 l113 -15 3 -35 c1 -19 -1 -40 -6 -47 -6 -9 -66 -5 -257 20 l-250 33 -3 34 c-4 58 5 64 86 51 113 -18 114 -17 96 24 -18 44 -18 69 2 110 16 34 63 64 99 65 11 0 75 -7 143 -16z m8022 -150 c14 -37 12 -96 -4 -120 -8 -11 -80 -48 -160 -84 -80 -35 -146 -66 -146 -70 0 -4 66 -26 148 -50 81 -23 156 -49 168 -56 27 -16 43 -120 22 -140 -14 -14 -450 -50 -468 -39 -6 3 -10 23 -10 45 0 38 0 38 48 44 26 3 97 8 157 11 214 11 215 11 -10 75 l-200 56 -9 37 c-6 24 -6 40 2 50 6 7 95 48 197 92 102 43 184 79 183 81 -2 1 -88 -4 -192 -12 -104 -7 -193 -11 -198 -8 -7 4 -12 82 -5 85 6 4 332 26 395 28 69 1 73 0 82 -25z m-2539 -560 c651 -317 1187 -579 1191 -583 4 -3 -401 -109 -900 -234 -499 -125 -1043 -262 -1209 -304 l-302 -75 -41 -59 c-23 -32 -55 -88 -71 -124 l-29 -65 -53 1 c-28 0 -64 3 -79 6 l-28 5 0 193 0 194 125 -65 c152 -80 194 -82 85 -6 -41 29 -106 72 -144 95 l-68 42 7 745 c4 410 9 747 11 749 6 6 266 59 295 60 16 1 494 -227 1210 -575z m-5408 289 c14 -8 8 -63 -8 -63 -19 0 -19 -9 1 -49 40 -80 -12 -181 -92 -181 -19 0 -44 5 -56 11 -29 16 -58 86 -58 147 0 50 -1 52 -28 52 -15 0 -33 -5 -40 -12 -16 -16 -15 -77 2 -126 16 -45 13 -52 -21 -52 -39 0 -63 52 -63 135 0 84 14 114 60 138 31 16 51 17 165 11 72 -3 133 -8 138 -11z m-163 -379 c80 -14 151 -31 158 -37 8 -6 12 -28 10 -60 l-3 -49 -92 -37 c-50 -20 -94 -39 -97 -42 -4 -3 38 -11 92 -18 55 -7 105 -17 112 -21 9 -6 14 -28 15 -61 l0 -52 -150 -63 c-196 -81 -189 -80 -193 -23 l-3 46 98 38 c54 20 109 42 123 47 21 9 4 14 -104 29 -71 10 -131 20 -133 23 -3 2 -7 22 -10 44 l-5 39 125 49 c69 27 125 49 124 50 -1 1 -56 10 -122 19 -66 10 -126 22 -132 27 -7 6 -13 28 -13 50 0 38 1 39 28 34 15 -3 92 -17 172 -32z m7917 -8 c89 -46 120 -159 71 -256 -33 -63 -74 -82 -164 -77 -127 7 -184 61 -184 176 0 86 22 128 81 159 37 20 54 23 106 18 34 -3 75 -12 90 -20z m43 -406 c8 -5 15 -19 15 -32 0 -19 7 -24 35 -28 38 -5 48 -27 35 -77 -5 -22 -9 -24 -49 -18 l-43 7 -7 -41 c-5 -34 -10 -41 -29 -41 -39 0 -50 15 -45 58 l6 39 -69 12 c-127 21 -149 15 -149 -40 0 -12 -7 -19 -19 -19 -42 0 -51 10 -51 62 0 41 5 54 29 79 35 34 66 37 184 14 98 -19 97 -19 97 3 0 32 28 42 60 22z m-7726 -116 c11 -29 6 -54 -11 -54 -13 0 -9 -9 17 -35 27 -28 34 -44 38 -87 5 -64 -19 -102 -74 -117 -71 -20 -125 29 -153 136 -11 41 -12 42 -41 32 -50 -18 -52 -64 -5 -134 31 -45 27 -65 -14 -65 -25 0 -35 8 -56 43 -51 88 -50 190 2 224 27 18 220 70 264 72 16 1 29 -6 33 -15z m7461 -118 c18 -8 38 -23 44 -34 13 -25 14 -115 2 -159 -7 -25 -6 -33 6 -37 56 -22 83 13 83 106 0 72 7 81 51 58 26 -15 27 -127 0 -186 -38 -83 -75 -90 -253 -43 -113 30 -118 33 -118 58 0 32 14 56 28 47 6 -4 8 17 5 57 -3 51 0 68 16 95 32 51 76 63 136 38z m-1059 -109 l-21 -54 -214 -42 c-587 -117 -1708 -387 -1688 -407 2 -2 80 11 173 30 196 41 1323 298 1561 356 88 22 163 40 166 40 2 0 7 -44 11 -97 3 -54 7 -109 9 -122 2 -24 -7 -27 -893 -248 -532 -133 -904 -222 -917 -218 -40 10 -25 21 55 43 110 30 221 70 197 71 -11 1 -86 -15 -166 -35 l-146 -35 -41 27 c-23 15 -42 31 -42 34 0 4 62 19 138 34 530 103 1460 324 1410 334 -23 4 -351 -63 -1033 -213 l-570 -124 -60 41 c-56 38 -61 40 -93 28 -39 -14 -48 -9 -33 18 7 14 46 28 153 56 79 21 571 149 1093 286 523 136 955 249 961 249 7 1 3 -20 -10 -52z m-6327 -152 c34 -17 61 -70 61 -118 0 -30 -4 -37 -31 -46 -39 -13 -49 -8 -49 28 0 57 -14 57 -205 -4 -97 -31 -183 -54 -190 -51 -14 5 -35 65 -28 78 3 6 314 111 358 121 38 9 56 7 84 -8z m7414 -167 l239 -82 -6 -30 c-13 -64 -13 -64 -270 25 -188 66 -236 86 -236 100 0 21 20 69 29 69 3 0 113 -37 244 -82z m-186 -115 c45 -30 50 -86 15 -181 -13 -38 -13 -45 -1 -53 49 -31 90 11 97 97 4 48 7 54 27 54 36 0 48 -24 42 -79 -7 -58 -34 -116 -71 -150 -39 -36 -84 -31 -216 27 -107 48 -115 53 -115 79 0 20 7 31 23 38 18 8 22 16 19 35 -10 50 32 132 78 151 24 10 72 1 102 -18z m-3158 -72 c-23 -40 -43 -70 -46 -68 -6 6 45 107 65 130 30 33 22 9 -19 -62z m2571 -54 c0 -22 -102 -182 -138 -219 -9 -9 -300 -118 -646 -242 -499 -179 -632 -224 -643 -214 -12 9 -12 13 -1 19 7 4 225 84 483 177 568 205 840 312 794 312 -14 0 -322 -109 -787 -279 -287 -105 -531 -191 -541 -191 -10 0 -25 8 -35 18 -18 21 -83 -5 734 299 496 184 668 251 675 263 9 14 -69 -12 -380 -125 -543 -199 -640 -234 -859 -310 -202 -70 -268 -86 -257 -60 3 6 241 95 530 198 290 104 643 231 786 282 143 52 266 94 273 95 6 0 12 -10 12 -23z m-2332 -119 c101 -69 305 -209 327 -225 6 -5 58 -39 115 -78 58 -38 107 -72 110 -75 3 -3 13 -9 22 -15 25 -15 522 -349 528 -355 3 -3 64 -44 135 -92 72 -48 180 -121 240 -163 61 -42 121 -84 135 -93 14 -9 140 -97 280 -196 269 -190 383 -274 388 -286 9 -23 -445 -56 -883 -65 -349 -8 -662 -31 -865 -64 -106 -18 -332 -76 -355 -91 -5 -4 -22 -10 -38 -14 -70 -17 -292 -129 -372 -188 -109 -81 -230 -194 -299 -280 -20 -27 -42 -48 -48 -48 -16 0 -42 21 -213 179 -33 30 -99 91 -146 136 -47 44 -114 107 -150 139 -35 33 -122 116 -194 186 -71 69 -247 238 -390 375 -143 137 -321 308 -395 380 -74 72 -164 158 -199 191 -150 137 -251 238 -251 249 0 16 55 92 110 151 146 159 341 266 580 320 184 42 253 46 875 54 541 7 745 17 763 35 3 3 23 5 44 5 31 0 59 -14 146 -72z m933 -189 c-206 -71 -382 -127 -391 -124 -10 3 -25 14 -35 25 -17 18 -16 19 6 25 13 3 191 50 394 105 204 54 377 99 385 99 8 0 -153 -58 -359 -130z m-4056 -69 c148 -43 222 -70 305 -113 52 -26 97 -53 98 -58 2 -5 8 -9 14 -9 14 0 76 -52 169 -142 42 -40 100 -95 130 -123 85 -77 426 -403 619 -590 96 -94 224 -217 285 -275 60 -58 123 -118 140 -135 17 -16 74 -70 126 -120 52 -49 135 -128 184 -175 50 -47 137 -128 195 -179 168 -150 168 -134 5 -125 -228 12 -476 5 -568 -16 -23 -5 -87 -19 -142 -29 -210 -41 -493 -133 -710 -231 -248 -113 -430 -204 -720 -360 -27 -15 -104 -55 -170 -90 -66 -34 -142 -75 -170 -90 -42 -23 -160 -83 -338 -171 -22 -10 -46 -19 -55 -19 -10 0 -41 35 -72 82 -30 45 -61 89 -67 98 -26 32 -461 718 -546 860 -43 70 -50 83 -74 117 -13 17 -23 34 -23 37 0 18 -498 789 -628 973 -38 53 -48 74 -39 81 36 28 325 219 472 312 218 137 284 174 477 271 64 33 119 59 122 59 3 0 29 11 58 24 29 13 76 32 103 41 28 9 59 21 70 25 11 5 29 10 40 13 11 3 54 14 95 25 65 17 122 29 220 46 47 9 355 -3 395 -14z m5319 -72 c-88 -141 -248 -349 -360 -466 l-69 -72 -42 27 c-39 25 -43 32 -43 68 0 76 13 116 65 208 36 62 61 94 77 99 12 4 43 13 68 20 33 10 46 19 48 34 2 17 29 31 135 72 73 28 135 51 140 51 4 1 -5 -18 -19 -41z m-589 -321 l-16 -55 -52 -6 c-29 -4 -108 -21 -177 -38 l-125 -31 -48 33 c-27 18 -45 36 -40 40 8 9 466 120 471 115 2 -2 -4 -28 -13 -58z m-25 -140 l0 -33 -92 -22 c-51 -12 -102 -22 -113 -22 -11 0 -42 15 -68 34 l-48 34 78 17 c43 9 83 18 88 20 6 2 43 4 83 4 l72 1 0 -33z m0 -97 c0 -33 -125 -56 -149 -26 -9 11 -1 16 46 29 83 21 103 21 103 -3z m-6720 -350 c167 -244 750 -1158 750 -1176 0 -3 11 -20 25 -38 14 -18 25 -38 25 -43 0 -6 6 -16 14 -22 8 -7 21 -26 30 -44 9 -18 34 -59 56 -92 22 -33 43 -68 46 -77 4 -10 10 -18 14 -18 4 0 11 -8 14 -17 7 -20 9 -23 90 -148 139 -213 210 -320 215 -325 4 -3 23 -32 45 -64 l38 -59 -11 -106 c-6 -58 -17 -175 -25 -260 -8 -84 -19 -158 -23 -162 -5 -5 -14 -1 -21 9 -11 16 -135 213 -157 251 -5 9 -20 31 -32 48 -13 17 -23 35 -23 39 0 4 -7 16 -17 26 -9 10 -21 27 -27 38 -20 35 -330 525 -335 530 -8 7 -29 41 -38 60 -3 8 -25 42 -47 75 -53 78 -64 96 -72 118 -3 9 -10 17 -14 17 -4 0 -11 8 -14 18 -7 18 -20 41 -51 87 -11 17 -25 39 -32 50 -7 11 -30 49 -53 85 -58 93 -58 93 -140 225 -41 66 -78 122 -82 123 -4 2 -8 8 -8 13 0 8 -72 130 -111 189 -5 8 -12 23 -15 33 -4 9 -10 17 -14 17 -4 0 -10 8 -14 18 -3 9 -11 26 -18 36 -7 11 -48 76 -91 145 -43 69 -88 139 -99 155 -32 44 -19 127 36 242 50 103 83 142 102 122 7 -7 44 -60 84 -118z m7500 -437 c2 -161 26 -330 65 -448 13 -38 26 -85 30 -102 l7 -33 -254 0 c-409 0 -1109 -26 -1298 -50 -201 -24 -247 -31 -274 -40 -16 -6 -42 -10 -57 -10 -15 0 -31 -4 -34 -10 -3 -5 -16 -10 -27 -10 -21 0 -113 -24 -153 -40 -11 -5 -42 -17 -70 -26 -27 -10 -70 -29 -95 -41 -25 -13 -48 -23 -52 -23 -7 0 -108 -62 -137 -84 -7 -6 -49 -45 -93 -86 l-79 -75 -19 25 c-11 14 -22 37 -25 53 -10 41 -31 80 -59 106 -24 22 -31 23 -130 19 -58 -3 -111 -9 -118 -15 -7 -6 -26 -13 -43 -16 -16 -3 -38 -9 -47 -12 -22 -9 -24 20 -5 58 36 70 186 254 273 337 177 168 442 307 684 361 25 5 63 14 85 20 22 5 69 14 105 20 36 5 88 14 115 19 98 18 284 31 560 41 746 26 980 39 1050 59 39 11 95 12 95 3z m-3024 -697 c19 -26 11 -46 -52 -137 -30 -42 -71 -112 -93 -155 -36 -73 -50 -113 -83 -236 l-12 -46 -150 -6 c-222 -8 -437 -32 -596 -65 -25 -5 -72 -14 -105 -21 -33 -6 -68 -16 -77 -21 -10 -5 -29 -9 -42 -9 -14 0 -27 -4 -31 -9 -3 -6 -26 -13 -50 -17 -25 -3 -48 -10 -51 -15 -3 -5 -16 -9 -29 -9 -13 0 -26 -4 -29 -9 -3 -5 -22 -12 -42 -16 -20 -3 -44 -10 -53 -15 -33 -17 -89 -40 -99 -40 -6 0 -27 -9 -49 -19 -21 -11 -59 -28 -85 -38 -27 -10 -48 -21 -48 -25 0 -5 -5 -8 -11 -8 -11 0 -279 -130 -289 -140 -3 -3 -23 -14 -45 -26 -76 -40 -160 -86 -170 -94 -9 -6 -49 -29 -150 -84 -11 -6 -22 -13 -25 -16 -3 -3 -14 -10 -25 -16 -103 -56 -144 -80 -167 -95 -14 -11 -29 -19 -32 -19 -4 0 -23 -10 -44 -23 -104 -65 -359 -197 -366 -189 -11 10 -6 139 9 259 50 395 23 342 223 441 190 93 241 120 672 352 129 69 577 290 588 290 5 0 31 11 58 25 27 14 52 25 57 25 4 0 26 8 50 19 23 10 65 26 92 36 28 9 59 20 70 25 11 5 45 16 75 26 30 9 64 20 75 25 11 4 52 15 90 24 39 9 86 20 105 25 183 46 460 69 808 66 100 -1 115 -3 128 -20z"/><path d="M5923 12380 c-50 -12 -63 -28 -63 -74 0 -56 22 -86 64 -86 49 0 97 20 105 43 9 23 -2 94 -15 107 -15 14 -57 19 -91 10z"/><path d="M8115 12373 c-87 -45 -130 -124 -123 -222 6 -79 35 -122 135 -197 104 -78 123 -100 123 -140 0 -46 -8 -63 -41 -79 -61 -32 -169 -6 -245 58 -40 34 -52 34 -64 1 -18 -45 -12 -99 13 -122 47 -44 137 -76 228 -80 103 -5 147 7 201 56 47 42 64 74 79 141 21 98 -18 164 -156 268 -112 84 -134 131 -87 185 36 42 135 25 217 -38 35 -26 38 -27 50 -11 7 10 16 36 19 60 6 38 4 44 -22 68 -70 63 -252 92 -327 52z"/><path d="M7240 12278 c-19 -5 -56 -26 -82 -45 l-48 -35 0 36 c0 41 -18 50 -86 44 l-39 -3 -8 -279 c-6 -209 -4 -282 4 -293 9 -10 30 -13 78 -11 l66 3 3 190 c2 180 4 190 25 213 50 54 128 69 163 31 17 -19 19 -41 22 -223 3 -228 2 -226 83 -226 78 0 79 3 79 220 0 228 -9 277 -58 329 -53 55 -122 72 -202 49z"/><path d="M6464 12241 c-51 -13 -128 -60 -157 -99 -41 -54 -61 -132 -54 -217 6 -80 37 -172 73 -214 75 -90 260 -102 390 -26 89 52 133 172 114 308 -25 175 -112 258 -265 256 -38 -1 -84 -4 -101 -8z m157 -148 c29 -29 59 -120 59 -178 0 -94 -42 -146 -123 -153 -46 -4 -57 -1 -85 23 -60 50 -84 214 -42 283 41 67 137 79 191 25z"/><path d="M5493 12167 c-53 -20 -58 -29 -39 -83 22 -66 21 -72 -20 -89 -39 -16 -41 -29 -15 -98 10 -26 14 -28 44 -22 17 4 36 8 41 9 5 0 20 -35 33 -79 65 -216 79 -251 106 -282 38 -43 94 -59 155 -43 100 25 128 54 111 116 -15 53 -22 58 -57 40 -45 -23 -79 -20 -97 8 -19 28 -96 277 -89 287 2 4 27 13 54 20 67 17 74 27 59 78 -17 58 -27 63 -84 46 -26 -8 -54 -15 -61 -15 -7 0 -20 26 -30 60 -16 57 -18 60 -48 59 -17 0 -45 -6 -63 -12z"/><path d="M5943 12135 c-18 -8 -33 -19 -33 -25 0 -8 94 -438 115 -529 6 -22 9 -23 57 -18 61 8 101 31 94 55 -6 18 -116 520 -116 528 0 10 -88 2 -117 -11z"/><path d="M8735 12031 c-128 -33 -225 -182 -225 -344 0 -123 68 -207 202 -249 177 -54 309 16 374 199 46 132 28 242 -53 314 -69 62 -216 102 -298 80z m155 -136 c43 -22 60 -53 60 -110 0 -80 -26 -154 -71 -198 -38 -38 -41 -39 -96 -35 -48 4 -61 10 -86 38 -28 31 -29 36 -25 104 5 80 40 160 84 195 32 25 92 28 134 6z"/><path d="M5137 11889 c-116 -18 -267 -121 -267 -183 0 -33 24 -76 42 -76 6 0 35 23 64 50 73 69 137 94 189 74 14 -6 61 -83 53 -88 -2 -2 -32 -16 -68 -33 -134 -63 -190 -123 -190 -204 0 -104 84 -185 181 -176 70 6 138 44 179 100 32 43 36 45 44 27 5 -11 18 -20 28 -20 24 0 84 25 92 39 6 9 -111 307 -153 390 -43 82 -104 113 -194 100z m138 -356 c20 -48 13 -77 -30 -120 -43 -43 -93 -46 -124 -7 -26 34 -26 54 0 88 20 26 102 75 126 76 7 0 20 -17 28 -37z"/><path d="M9931 11773 c-27 -33 -37 -72 -24 -92 13 -21 83 -61 106 -61 24 0 64 45 72 81 8 34 -11 61 -57 85 -42 22 -74 17 -97 -13z"/><path d="M9344 11766 c-137 -64 -236 -296 -181 -427 39 -95 190 -174 293 -154 31 5 39 13 59 57 13 29 21 56 18 61 -3 5 -30 7 -62 4 -66 -7 -131 17 -152 55 -45 82 41 273 131 293 42 9 108 -25 144 -76 15 -22 33 -38 40 -36 6 2 22 23 35 46 22 41 23 45 8 76 -31 65 -144 125 -235 125 -28 0 -67 -10 -98 -24z"/><path d="M4594 11649 c-101 -29 -185 -129 -192 -229 -9 -128 82 -294 193 -353 87 -46 215 -15 303 73 53 53 59 77 34 127 -31 60 -47 70 -66 39 -9 -14 -23 -37 -32 -51 -20 -34 -72 -65 -107 -65 -62 0 -121 59 -160 158 -45 114 13 192 143 192 45 0 50 2 50 23 0 24 -23 64 -48 85 -18 14 -72 14 -118 1z"/><path d="M9839 11584 c-18 -22 -269 -475 -269 -486 0 -13 92 -68 114 -68 17 0 48 49 154 241 73 132 132 248 130 257 -3 14 -89 71 -109 72 -4 0 -13 -7 -20 -16z"/><path d="M4086 11345 c-25 -20 -46 -40 -46 -45 0 -5 47 -75 105 -156 69 -97 105 -156 105 -173 0 -55 -21 -102 -53 -122 -62 -38 -98 -13 -220 161 -83 119 -116 160 -127 160 -15 0 -99 -62 -104 -77 -8 -20 220 -342 267 -376 71 -53 134 -57 214 -11 46 27 79 74 103 147 l16 49 17 -26 c23 -35 50 -33 94 8 l36 33 -163 232 c-100 141 -171 231 -181 231 -9 0 -37 -16 -63 -35z"/><path d="M10120 11343 c-60 -22 -158 -121 -195 -197 -58 -118 -43 -215 46 -304 53 -53 171 -119 231 -128 34 -6 38 -4 64 35 30 47 28 53 -31 71 -152 48 -223 133 -187 223 8 20 18 37 24 37 5 0 72 -43 149 -95 77 -52 146 -95 154 -95 17 0 54 48 86 110 28 57 31 150 6 198 -65 121 -227 189 -347 145z m177 -123 c17 -10 37 -29 43 -41 14 -26 8 -90 -12 -118 -13 -19 -16 -18 -93 35 -44 31 -87 59 -95 64 -12 7 -12 10 0 26 23 27 72 54 100 54 14 0 39 -9 57 -20z"/><path d="M3332 11090 c-23 -22 -42 -46 -42 -52 1 -7 45 -60 100 -118 109 -117 108 -104 17 -124 -42 -10 -113 -81 -133 -132 -22 -57 -14 -125 22 -196 34 -66 144 -177 206 -207 56 -26 142 -30 185 -8 66 35 119 112 130 192 l6 46 22 -21 c12 -11 28 -20 36 -20 17 0 79 60 79 76 0 18 -550 599 -569 602 -10 2 -36 -15 -59 -38z m327 -455 l63 -65 -4 -62 c-4 -54 -8 -64 -38 -91 -38 -34 -77 -33 -136 4 -46 28 -111 110 -123 157 -22 78 42 138 134 127 33 -4 51 -17 104 -70z"/><path d="M10762 11074 l-39 -46 -32 23 c-37 27 -53 22 -89 -31 l-22 -34 25 -26 c14 -14 25 -29 25 -33 0 -5 -45 -60 -99 -123 -55 -63 -107 -131 -116 -151 -37 -78 -12 -157 68 -212 70 -47 83 -48 122 -5 19 21 35 43 35 48 0 6 -17 20 -38 31 -29 16 -38 27 -40 51 -3 27 9 46 75 124 43 51 87 104 98 117 l20 25 48 -42 c34 -30 52 -40 67 -35 22 7 60 55 60 77 0 7 -21 31 -46 53 l-47 41 42 48 c22 26 41 52 41 58 0 18 -79 88 -100 88 -10 0 -36 -21 -58 -46z"/><path d="M10881 10517 c-65 -134 -124 -260 -132 -280 -12 -34 -20 -40 -106 -74 -79 -31 -93 -40 -93 -59 0 -23 81 -104 104 -104 14 0 715 327 734 342 6 6 12 14 12 19 0 16 -82 99 -96 99 -8 0 -95 -41 -194 -90 l-180 -90 95 190 95 190 -46 50 c-26 28 -53 50 -61 50 -9 0 -60 -94 -132 -243z"/><path d="M2779 10439 c-142 -173 -151 -187 -138 -211 5 -9 133 -119 284 -243 189 -154 283 -225 300 -225 18 0 52 34 154 159 72 88 131 166 131 174 0 15 -64 77 -79 77 -5 0 -52 -51 -104 -114 l-94 -115 -87 71 -86 70 67 82 c36 44 73 89 81 98 13 16 11 21 -21 53 -19 19 -42 35 -50 35 -9 0 -51 -42 -93 -94 l-78 -94 -57 45 c-102 80 -102 65 1 191 77 95 89 115 81 131 -9 16 -69 61 -83 61 -2 0 -60 -68 -129 -151z"/><path d="M11051 9980 c-38 -30 -70 -45 -134 -61 -112 -28 -115 -30 -88 -68 33 -46 46 -50 153 -40 102 8 165 29 206 68 27 27 28 44 1 87 -40 65 -69 68 -138 14z"/><path d="M11985 9829 c-329 -184 -594 -335 -607 -347 -10 -8 -18 -22 -18 -30 0 -27 133 -253 179 -304 58 -65 111 -92 181 -92 127 0 222 100 208 218 l-4 34 31 -16 c49 -25 120 -19 168 15 62 43 87 86 87 149 0 68 -24 132 -103 269 -65 114 -80 127 -122 104z m82 -307 c6 -47 -23 -87 -73 -101 -42 -12 -71 -3 -100 30 -33 38 -66 101 -57 110 4 4 44 28 88 53 l79 45 29 -50 c16 -27 31 -66 34 -87z m-304 -93 c55 -106 48 -167 -25 -205 -64 -33 -117 -1 -177 108 l-32 56 73 42 c40 24 82 48 93 56 11 7 23 13 26 13 3 1 22 -31 42 -70z"/><path d="M2474 9640 c-15 -11 -37 -30 -47 -42 -103 -131 -95 -283 19 -338 75 -37 126 -23 238 64 33 25 69 46 81 46 35 0 59 -34 52 -75 -7 -43 -31 -75 -92 -122 -51 -38 -50 -50 8 -79 39 -21 69 -12 113 34 73 75 112 176 99 255 -8 43 -52 100 -96 123 -33 16 -96 18 -135 4 -14 -6 -58 -35 -97 -65 -75 -58 -104 -66 -130 -37 -33 36 -13 87 58 150 25 22 45 43 45 48 0 10 -30 31 -64 44 -17 6 -31 3 -52 -10z"/><path d="M2002 9345 c-12 -14 -26 -42 -32 -61 -15 -44 -6 -56 71 -94 40 -21 73 -49 115 -99 33 -39 64 -71 70 -71 6 0 19 19 30 41 l18 41 -34 66 c-49 92 -84 138 -127 166 -60 39 -87 42 -111 11z"/><path d="M12025 9017 c-187 -74 -220 -90 -258 -126 -62 -57 -74 -130 -33 -216 26 -56 42 -73 104 -108 l43 -24 -31 -13 c-22 -9 -30 -19 -30 -37 0 -39 27 -93 47 -93 10 1 131 45 268 99 229 90 250 100 253 123 3 27 -34 118 -49 118 -4 0 -83 -29 -174 -65 -92 -36 -172 -65 -178 -65 -28 0 -99 45 -112 71 -40 77 -8 107 213 194 148 58 172 71 172 89 0 31 -42 111 -60 113 -8 2 -87 -26 -175 -60z"/><path d="M2103 8932 c-15 -9 -43 -75 -43 -99 0 -10 11 -41 24 -69 l24 -51 -35 10 c-31 10 -37 9 -49 -8 -24 -32 -35 -88 -21 -101 16 -14 498 -194 521 -194 18 0 44 51 53 105 l5 32 -143 53 c-188 70 -195 74 -219 120 -25 49 -25 88 0 120 11 14 20 29 20 33 0 8 -64 39 -105 51 -11 3 -25 2 -32 -2z"/><path d="M12290 8364 c-206 -58 -379 -109 -384 -114 -13 -13 2 -96 23 -121 l17 -21 395 108 394 109 3 29 c2 16 -4 48 -13 72 -13 34 -22 44 -38 43 -12 -1 -191 -48 -397 -105z"/><path d="M2045 8394 c-90 -22 -133 -58 -170 -139 -96 -210 37 -394 297 -412 137 -10 222 47 267 178 26 77 39 216 22 247 -11 21 -83 48 -100 37 -5 -3 -9 -45 -9 -94 0 -95 -19 -158 -60 -195 -23 -20 -116 -35 -125 -19 -3 5 12 81 34 168 22 87 38 169 35 182 -4 15 -17 25 -44 32 -51 13 -123 20 -147 15z m67 -149 c5 -5 -32 -168 -47 -213 -9 -25 -89 33 -106 76 -13 34 6 97 38 121 24 20 101 30 115 16z"/><path d="M12189 8032 c-136 -45 -191 -102 -197 -208 -5 -78 20 -137 80 -188 l40 -35 -33 -9 c-33 -9 -34 -10 -33 -61 1 -29 6 -57 11 -62 13 -13 804 117 821 135 16 16 8 95 -13 122 -12 17 -20 16 -151 -4 -77 -12 -142 -22 -146 -22 -4 0 2 21 14 47 44 100 4 219 -92 273 -61 33 -216 40 -301 12z m242 -157 c19 -10 32 -28 40 -53 10 -33 8 -44 -9 -78 -30 -59 -50 -71 -142 -87 -81 -15 -86 -14 -117 5 -47 28 -73 66 -73 105 0 48 14 70 62 94 77 39 178 45 239 14z"/><path d="M1830 7698 c-92 -47 -123 -173 -67 -272 15 -27 27 -49 27 -50 0 -1 -68 5 -150 13 -115 12 -153 12 -162 3 -14 -14 -24 -127 -11 -135 5 -3 190 -24 413 -47 387 -41 404 -42 417 -24 14 19 19 134 6 134 -5 0 -88 9 -187 20 -200 21 -211 26 -242 105 -14 39 -14 45 0 73 27 52 63 56 266 34 208 -23 205 -24 205 71 l0 62 -100 12 c-55 6 -161 15 -235 18 -129 6 -137 6 -180 -17z"/><path d="M12340 7331 c-135 -3 -251 -10 -257 -14 -15 -9 -18 -114 -4 -136 7 -12 42 -13 195 -9 l185 6 41 -44 c30 -32 40 -52 40 -77 0 -79 -50 -97 -274 -97 -85 0 -161 -3 -170 -6 -12 -5 -16 -21 -16 -68 0 -33 4 -67 9 -74 7 -11 45 -12 197 -7 104 3 211 11 238 16 100 19 164 104 153 200 -6 52 -28 102 -60 137 l-20 22 109 1 c60 0 132 4 159 7 l50 7 0 70 0 70 -165 1 c-91 0 -275 -2 -410 -5z"/><path d="M2137 7058 c-15 -12 -14 -17 13 -57 41 -60 48 -106 24 -150 -29 -52 -74 -71 -167 -71 -127 0 -177 34 -177 120 0 30 9 60 26 90 24 42 24 45 8 57 -19 14 -55 16 -92 7 -38 -11 -66 -78 -66 -159 0 -121 40 -193 138 -242 67 -34 205 -44 287 -20 123 36 182 115 182 241 0 78 -31 169 -64 186 -25 14 -92 12 -112 -2z"/><path d="M12175 6681 c-75 -18 -124 -84 -132 -180 -5 -49 -1 -68 20 -114 l25 -56 -26 -3 c-24 -3 -28 -9 -36 -51 -8 -38 -6 -51 5 -61 18 -17 411 -62 460 -52 88 16 141 90 155 213 7 73 -10 184 -35 214 -18 22 -79 35 -100 20 -12 -8 -12 -18 2 -68 10 -33 17 -85 17 -117 0 -50 -4 -61 -29 -87 -29 -28 -72 -38 -98 -21 -7 5 -11 43 -10 117 1 94 -2 116 -20 150 -26 50 -52 73 -100 91 -42 15 -54 15 -98 5z m96 -170 c22 -17 24 -27 24 -95 -1 -41 -4 -78 -7 -82 -4 -3 -27 -3 -52 0 -37 6 -49 13 -66 40 -25 41 -27 112 -3 138 21 24 74 23 104 -1z"/><path d="M2090 6489 c-102 -16 -204 -36 -227 -44 -52 -20 -89 -62 -104 -118 -25 -91 28 -282 91 -329 21 -15 31 -16 62 -8 21 6 40 15 43 20 3 5 -8 30 -25 57 -17 26 -38 72 -46 101 -26 89 -1 138 75 144 l33 3 18 -88 c19 -92 53 -162 95 -195 56 -44 157 -36 219 18 79 70 69 228 -19 310 l-27 25 24 5 c19 5 24 13 26 48 4 48 -12 83 -36 81 -9 -1 -100 -14 -202 -30z m134 -179 c28 -31 36 -48 36 -78 0 -43 -6 -55 -37 -71 -63 -33 -110 16 -127 131 l-7 47 38 4 c21 2 43 4 49 5 7 1 28 -16 48 -38z"/><path d="M11989 6043 c-13 -33 -24 -123 -15 -123 3 0 68 -16 143 -36 76 -19 155 -40 175 -45 77 -20 118 -138 65 -187 -34 -32 -85 -28 -273 20 -122 32 -167 39 -175 31 -6 -6 -18 -35 -25 -64 -11 -43 -11 -56 -1 -65 19 -19 373 -106 433 -106 98 -1 161 52 184 155 12 51 4 91 -34 179 -7 14 -2 16 32 11 40 -5 41 -5 51 33 16 56 14 82 -6 88 -36 11 -530 136 -536 136 -4 0 -12 -12 -18 -27z"/><path d="M2314 5900 c-32 -13 -36 -25 -15 -51 75 -97 100 -231 52 -283 -24 -26 -78 -50 -85 -38 -2 4 -22 72 -45 152 -54 187 -55 190 -85 190 -41 0 -135 -40 -172 -73 -59 -51 -77 -98 -72 -187 13 -229 215 -331 450 -227 111 50 158 117 158 229 0 130 -74 291 -135 295 -16 1 -40 -2 -51 -7z m-204 -193 c0 -1 14 -49 30 -107 17 -58 30 -106 30 -107 0 -2 -22 -3 -50 -3 -65 0 -109 36 -117 96 -6 50 7 78 50 104 27 17 57 26 57 17z"/><path d="M11871 5423 c-39 -8 -106 -84 -126 -142 -16 -48 -15 -112 1 -156 3 -8 -5 -10 -26 -7 -27 4 -32 0 -46 -33 -29 -70 -28 -71 181 -156 218 -89 267 -100 323 -72 77 40 138 157 148 286 8 90 -9 119 -72 121 l-39 1 -5 -90 c-9 -150 -57 -202 -153 -166 l-25 10 30 86 c54 158 36 248 -62 298 -51 26 -76 30 -129 20z m92 -170 c10 -10 17 -31 17 -53 0 -38 -26 -126 -40 -135 -4 -2 -26 3 -49 12 -33 13 -43 23 -52 54 -32 104 52 186 124 122z"/><path d="M2302 5169 c-156 -66 -289 -118 -295 -116 -7 3 -27 43 -46 90 -19 47 -39 88 -45 90 -21 8 -101 -28 -104 -47 -5 -24 208 -526 225 -533 19 -8 84 19 97 39 8 13 3 35 -23 95 -18 43 -35 85 -38 93 -3 12 66 45 291 139 162 68 297 129 299 135 11 28 -42 136 -66 136 -6 -1 -140 -55 -295 -121z"/><path d="M7372 10670 c-26 -11 -52 -65 -52 -111 0 -45 28 -98 56 -105 67 -17 105 25 107 117 2 55 -1 63 -26 85 -30 25 -48 28 -85 14z"/><path d="M7771 10611 c-26 -26 -43 -93 -35 -137 8 -43 40 -67 85 -62 46 4 72 44 77 115 3 49 0 62 -18 81 -27 28 -82 30 -109 3z"/><path d="M8631 10546 c-7 -8 -11 -32 -9 -53 2 -30 7 -39 25 -41 36 -5 83 25 83 53 0 43 -72 73 -99 41z"/><path d="M8516 10339 c-35 -27 -35 -72 -1 -103 28 -26 92 -43 107 -28 11 11 -52 151 -68 152 -6 0 -23 -9 -38 -21z"/><path d="M5293 10224 c-15 -24 -15 -29 -2 -53 11 -20 22 -26 49 -26 27 0 38 6 49 26 13 24 13 29 -2 53 -12 18 -26 26 -47 26 -21 0 -35 -8 -47 -26z"/><path d="M5445 9987 c-33 -18 -40 -28 -40 -52 0 -26 4 -30 30 -33 45 -4 95 31 95 67 0 17 -6 31 -16 35 -22 9 -25 8 -69 -17z"/><path d="M5757 7392 l-66 -151 85 -113 c142 -189 243 -419 293 -665 27 -128 41 -337 34 -470 l-6 -103 25 0 c30 0 27 -11 59 235 44 337 25 658 -51 889 -56 167 -168 368 -273 490 l-33 39 -67 -151z"/><path d="M4043 9183 c-26 -5 -53 -39 -53 -65 0 -24 63 -93 100 -108 16 -7 40 -10 54 -6 29 7 50 53 40 90 -6 27 -87 97 -108 95 -6 -1 -21 -4 -33 -6z"/><path d="M10185 9305 c-97 -52 -120 -135 -51 -181 34 -21 77 -7 128 43 28 28 38 45 38 69 0 63 -59 98 -115 69z"/><path d="M10657 8654 c-4 -5 41 -100 60 -123 2 -3 15 6 29 20 20 19 24 30 20 53 -4 16 -11 35 -17 43 -11 13 -80 18 -92 7z"/><path d="M10852 8320 c-12 -5 -25 -16 -28 -25 -10 -26 5 -65 31 -77 58 -26 105 60 53 96 -25 18 -25 18 -56 6z"/><path d="M10585 8214 c-19 -20 -14 -55 14 -94 22 -30 68 -39 77 -15 6 15 -10 79 -25 103 -13 19 -49 23 -66 6z"/><path d="M10974 7945 c3 -9 13 -40 22 -70 14 -49 18 -54 34 -45 69 37 49 130 -28 130 -27 0 -33 -3 -28 -15z"/><path d="M3416 7668 c-16 -61 -1 -98 39 -98 28 0 45 19 45 50 0 59 -70 99 -84 48z"/><path d="M3310 6872 c0 -65 48 -106 80 -67 32 39 0 105 -52 105 -26 0 -28 -3 -28 -38z"/><path d="M11050 6517 c-52 -26 -52 -105 0 -132 37 -19 129 -20 157 0 26 18 36 56 23 90 -18 47 -122 71 -180 42z"/><path d="M3404 5975 c-10 -24 28 -90 54 -93 50 -7 67 37 31 82 -23 29 -76 36 -85 11z"/><path d="M10916 5874 c-35 -34 -5 -114 43 -114 36 0 43 90 9 114 -28 20 -33 20 -52 0z"/><path d="M10725 5326 c-20 -31 -11 -72 22 -93 28 -19 36 -13 52 39 9 27 9 42 1 58 -15 28 -56 26 -75 -4z"/></g></svg>